<svg xmlns="http://www.w3.org/2000/svg" version="1.1" xmlns:xlink="http://www.w3.org/1999/xlink" xmlns:svgjs="http://svgjs.dev/svgjs" width="2000" height="1500" viewBox="0 0 2000 1500"><rect width="2000" height="1500" fill="#8abe53"></rect><g transform="matrix(0.75,0,0,0.75,250.5401731201839,235.91659919028336)"><svg viewBox="0 0 360 247" data-background-color="#8abe53" preserveAspectRatio="xMidYMid meet" height="1372" width="2000" xmlns="http://www.w3.org/2000/svg" xmlns:xlink="http://www.w3.org/1999/xlink"><g id="tight-bounds" transform="matrix(1,0,0,1,-0.12964154884414825,-0.09999999999999432)"><svg viewBox="0 0 360.2592830976883 247.2" height="247.2" width="360.2592830976883"><g><svg viewBox="0 0 395.52 271.3949330029835" height="247.2" width="360.2592830976883"><g transform="matrix(1,0,0,1,0,201.2857145953867)"><svg viewBox="0 0 395.52 70.10921840759679" height="70.10921840759679" width="395.52"><g id="textblocktransform"><svg viewBox="0 0 395.52 70.10921840759679" height="70.10921840759679" width="395.52" id="textblock"><g><svg viewBox="0 0 395.52 70.10921840759679" height="70.10921840759679" width="395.52"><g transform="matrix(1,0,0,1,0,0)"><svg width="395.52" viewBox="1.46 -35.55 200.53 35.55" height="70.10921840759679" data-palette-color="#ffffff"><path d="M24.61-35.55L24.61-31.69 15.26-31.69 15.26 0 10.79 0 10.79-31.69 1.46-31.69 1.46-35.55 24.61-35.55ZM46.92 0L40.6-14.38 34.35-14.38 34.35 0 29.86 0 29.86-35.55 39.82-35.55Q45.04-35.55 47.73-32.82 50.41-30.1 50.41-24.85L50.41-24.85Q50.41-21.56 48.96-19.1 47.51-16.65 44.85-15.41L44.85-15.41 51.73-0.29 51.73 0 46.92 0ZM34.35-31.69L34.35-18.21 39.77-18.21Q42.58-18.21 44.25-20.02 45.92-21.83 45.92-24.85L45.92-24.85Q45.92-31.69 39.72-31.69L39.72-31.69 34.35-31.69ZM75.78 0L72.97-9.28 60.96-9.28 58.2 0 53.61 0 65.06-35.55 68.89-35.55 80.37 0 75.78 0ZM66.96-29.3L62.13-13.13 71.82-13.13 66.96-29.3ZM85.2-35.55L90.96-35.55 100.24-6.54 109.51-35.55 115.28-35.55 115.28 0 110.81 0 110.81-13.84 111.22-27.71 101.92 0 98.5 0 89.25-27.61 89.67-13.84 89.67 0 85.2 0 85.2-35.55ZM142.79 0L139.98-9.28 127.97-9.28 125.21 0 120.62 0 132.07-35.55 135.9-35.55 147.38 0 142.79 0ZM133.97-29.3L129.14-13.13 138.83-13.13 133.97-29.3ZM169.27 0L162.95-14.38 156.7-14.38 156.7 0 152.21 0 152.21-35.55 162.17-35.55Q167.39-35.55 170.08-32.82 172.77-30.1 172.77-24.85L172.77-24.85Q172.77-21.56 171.31-19.1 169.86-16.65 167.2-15.41L167.2-15.41 174.08-0.29 174.08 0 169.27 0ZM156.7-31.69L156.7-18.21 162.12-18.21Q164.93-18.21 166.6-20.02 168.27-21.83 168.27-24.85L168.27-24.85Q168.27-31.69 162.07-31.69L162.07-31.69 156.7-31.69ZM196.64 0L186.7-16.38 183.21-12.16 183.21 0 178.74 0 178.74-35.55 183.21-35.55 183.21-18.38 186.14-22.27 195.71-35.55 201.08-35.55 189.54-19.9 201.99 0 196.64 0Z" opacity="1" transform="matrix(1,0,0,1,0,0)" fill="#ffffff" class="undefined-text-0" data-fill-palette-color="primary" id="text-0"></path></svg></g></svg></g></svg></g></svg></g><g transform="matrix(1,0,0,1,113.66824654709845,0)"><svg viewBox="0 0 168.18350690580309 168.18350690580309" height="168.18350690580309" width="168.18350690580309"><g><svg></svg></g><g id="icon-0"><svg viewBox="0 0 168.18350690580309 168.18350690580309" height="168.18350690580309" width="168.18350690580309"><g><path d="M0 84.092c0-46.443 37.649-84.092 84.092-84.092 46.443 0 84.092 37.649 84.092 84.092 0 46.443-37.649 84.092-84.092 84.092-46.443 0-84.092-37.649-84.092-84.092zM84.092 161.861c42.951 0 77.769-34.818 77.769-77.769 0-42.951-34.818-77.769-77.769-77.769-42.951 0-77.769 34.818-77.769 77.769 0 42.951 34.818 77.769 77.769 77.769z" data-fill-palette-color="accent" fill="#ffffff" stroke="transparent"></path></g><g transform="matrix(1,0,0,1,37.74255590016418,37.74255590016418)"><svg viewBox="0 0 92.69839510547473 92.69839510547473" height="92.69839510547473" width="92.69839510547473"><g><svg xmlns="http://www.w3.org/2000/svg" xmlns:xlink="http://www.w3.org/1999/xlink" version="1.1" x="0" y="0" viewBox="7.5 7.5 85 85" enable-background="new 0 0 100 100" xml:space="preserve" height="92.69839510547473" width="92.69839510547473" class="icon-g$-0" data-fill-palette-color="accent" id="g$-0"><g fill="#ffffff" data-fill-palette-color="accent"><path d="M20 29.5c1.381 0 2.5-1.119 2.5-2.5v-5.964l7.5-7.5 7.5 7.5V30c0 1.381 1.119 2.5 2.5 2.5s2.5-1.119 2.5-2.5v-7.5h35V27c0 1.381 1.119 2.5 2.5 2.5s2.5-1.119 2.5-2.5v-7c0-0.663-0.264-1.299-0.732-1.768l-10-10C71.299 7.763 70.663 7.5 70 7.5H30c-0.64 0-1.28 0.244-1.768 0.732l-10 10C17.763 18.701 17.5 19.337 17.5 20v7C17.5 28.381 18.619 29.5 20 29.5zM73.965 17.5H41.035l-5-5h32.93L73.965 17.5z" fill="#ffffff" data-fill-palette-color="accent"></path><path d="M91.314 27.874c-0.736-0.456-1.657-0.498-2.433-0.109-19.26 9.629-58.505 9.629-77.764 0-0.775-0.388-1.695-0.347-2.433 0.109C7.949 28.329 7.5 29.134 7.5 30v8c0 1.022 0.623 1.941 1.571 2.321l3.501 1.4c0.257 3.356 1.253 6.62 2.933 9.527 0.463 0.802 1.303 1.25 2.167 1.25 0.424 0 0.854-0.108 1.248-0.336 1.196-0.69 1.605-2.22 0.914-3.415C18.308 46.104 17.5 43.079 17.5 40c0 0-0.004 0.003-0.004 0.003 0.001-0.993-0.59-1.933-1.568-2.324L12.5 36.308v-2.446c20.313 8.207 54.687 8.208 75 0v2.446l-3.429 1.371c-0.977 0.391-1.568 1.33-1.568 2.323 0 0-0.004-0.002-0.004-0.002 0 3.079-0.808 6.105-2.337 8.751-0.69 1.195-0.281 2.725 0.914 3.415 0.395 0.228 0.824 0.336 1.249 0.336 0.863 0 1.703-0.448 2.167-1.25 1.68-2.909 2.678-6.174 2.934-9.53l3.501-1.4C91.878 39.941 92.5 39.022 92.5 38v-8C92.5 29.134 92.052 28.329 91.314 27.874z" fill="#ffffff" data-fill-palette-color="accent"></path><path d="M90 56.5c-1.381 0-2.5 1.119-2.5 2.5 0 1.379-1.121 2.5-2.5 2.5s-2.5-1.121-2.5-2.5c0-1.381-1.119-2.5-2.5-2.5s-2.5 1.119-2.5 2.5c0 1.379-1.121 2.5-2.5 2.5s-2.5-1.121-2.5-2.5c0-1.381-1.119-2.5-2.5-2.5s-2.5 1.119-2.5 2.5c0 1.379-1.121 2.5-2.5 2.5s-2.5-1.121-2.5-2.5c0-1.381-1.119-2.5-2.5-2.5s-2.5 1.119-2.5 2.5c0 1.379-1.121 2.5-2.5 2.5s-2.5-1.121-2.5-2.5c0-1.381-1.119-2.5-2.5-2.5s-2.5 1.119-2.5 2.5c0 1.379-1.122 2.5-2.5 2.5s-2.5-1.121-2.5-2.5c0-1.381-1.119-2.5-2.5-2.5s-2.5 1.119-2.5 2.5c0 1.379-1.122 2.5-2.5 2.5s-2.5-1.121-2.5-2.5c0-1.381-1.119-2.5-2.5-2.5s-2.5 1.119-2.5 2.5c0 1.379-1.122 2.5-2.5 2.5s-2.5-1.121-2.5-2.5c0-1.381-1.119-2.5-2.5-2.5s-2.5 1.119-2.5 2.5c0 1.379-1.122 2.5-2.5 2.5s-2.5-1.121-2.5-2.5c0-1.381-1.119-2.5-2.5-2.5S7.5 57.619 7.5 59c0 4.136 3.364 7.5 7.5 7.5 1.922 0 3.672-0.733 5-1.926 1.328 1.193 3.078 1.926 5 1.926s3.672-0.733 5-1.926c1.328 1.193 3.078 1.926 5 1.926s3.672-0.733 5-1.926c1.328 1.193 3.078 1.926 5 1.926s3.672-0.733 5-1.926c1.328 1.193 3.078 1.926 5 1.926s3.672-0.733 5-1.926c1.328 1.193 3.078 1.926 5 1.926s3.672-0.733 5-1.926c1.328 1.193 3.078 1.926 5 1.926s3.672-0.733 5-1.926c1.328 1.193 3.078 1.926 5 1.926 4.136 0 7.5-3.364 7.5-7.5C92.5 57.619 91.381 56.5 90 56.5z" fill="#ffffff" data-fill-palette-color="accent"></path><path d="M90 69.5c-1.381 0-2.5 1.119-2.5 2.5 0 1.379-1.121 2.5-2.5 2.5s-2.5-1.121-2.5-2.5c0-1.381-1.119-2.5-2.5-2.5s-2.5 1.119-2.5 2.5c0 1.379-1.121 2.5-2.5 2.5s-2.5-1.121-2.5-2.5c0-1.381-1.119-2.5-2.5-2.5s-2.5 1.119-2.5 2.5c0 1.379-1.121 2.5-2.5 2.5s-2.5-1.121-2.5-2.5c0-1.381-1.119-2.5-2.5-2.5s-2.5 1.119-2.5 2.5c0 1.379-1.121 2.5-2.5 2.5s-2.5-1.121-2.5-2.5c0-1.381-1.119-2.5-2.5-2.5s-2.5 1.119-2.5 2.5c0 1.379-1.122 2.5-2.5 2.5s-2.5-1.121-2.5-2.5c0-1.381-1.119-2.5-2.5-2.5s-2.5 1.119-2.5 2.5c0 1.379-1.122 2.5-2.5 2.5s-2.5-1.121-2.5-2.5c0-1.381-1.119-2.5-2.5-2.5s-2.5 1.119-2.5 2.5c0 1.379-1.122 2.5-2.5 2.5s-2.5-1.121-2.5-2.5c0-1.381-1.119-2.5-2.5-2.5s-2.5 1.119-2.5 2.5c0 1.379-1.122 2.5-2.5 2.5s-2.5-1.121-2.5-2.5c0-1.381-1.119-2.5-2.5-2.5S7.5 70.619 7.5 72c0 4.136 3.364 7.5 7.5 7.5 1.922 0 3.672-0.733 5-1.926 1.328 1.193 3.078 1.926 5 1.926s3.672-0.733 5-1.926c1.328 1.193 3.078 1.926 5 1.926s3.672-0.733 5-1.926c1.328 1.193 3.078 1.926 5 1.926s3.672-0.733 5-1.926c1.328 1.193 3.078 1.926 5 1.926s3.672-0.733 5-1.926c1.328 1.193 3.078 1.926 5 1.926s3.672-0.733 5-1.926c1.328 1.193 3.078 1.926 5 1.926s3.672-0.733 5-1.926c1.328 1.193 3.078 1.926 5 1.926 4.136 0 7.5-3.364 7.5-7.5C92.5 70.619 91.381 69.5 90 69.5z" fill="#ffffff" data-fill-palette-color="accent"></path><path d="M90 82.5c-1.381 0-2.5 1.119-2.5 2.5 0 1.379-1.121 2.5-2.5 2.5s-2.5-1.121-2.5-2.5c0-1.381-1.119-2.5-2.5-2.5s-2.5 1.119-2.5 2.5c0 1.379-1.121 2.5-2.5 2.5s-2.5-1.121-2.5-2.5c0-1.381-1.119-2.5-2.5-2.5s-2.5 1.119-2.5 2.5c0 1.379-1.121 2.5-2.5 2.5s-2.5-1.121-2.5-2.5c0-1.381-1.119-2.5-2.5-2.5s-2.5 1.119-2.5 2.5c0 1.379-1.121 2.5-2.5 2.5s-2.5-1.121-2.5-2.5c0-1.381-1.119-2.5-2.5-2.5s-2.5 1.119-2.5 2.5c0 1.379-1.122 2.5-2.5 2.5s-2.5-1.121-2.5-2.5c0-1.381-1.119-2.5-2.5-2.5s-2.5 1.119-2.5 2.5c0 1.379-1.122 2.5-2.5 2.5s-2.5-1.121-2.5-2.5c0-1.381-1.119-2.5-2.5-2.5s-2.5 1.119-2.5 2.5c0 1.379-1.122 2.5-2.5 2.5s-2.5-1.121-2.5-2.5c0-1.381-1.119-2.5-2.5-2.5s-2.5 1.119-2.5 2.5c0 1.379-1.122 2.5-2.5 2.5s-2.5-1.121-2.5-2.5c0-1.381-1.119-2.5-2.5-2.5S7.5 83.619 7.5 85c0 4.136 3.364 7.5 7.5 7.5 1.922 0 3.672-0.733 5-1.926 1.328 1.193 3.078 1.926 5 1.926s3.672-0.733 5-1.926c1.328 1.193 3.078 1.926 5 1.926s3.672-0.733 5-1.926c1.328 1.193 3.078 1.926 5 1.926s3.672-0.733 5-1.926c1.328 1.193 3.078 1.926 5 1.926s3.672-0.733 5-1.926c1.328 1.193 3.078 1.926 5 1.926s3.672-0.733 5-1.926c1.328 1.193 3.078 1.926 5 1.926s3.672-0.733 5-1.926c1.328 1.193 3.078 1.926 5 1.926 4.136 0 7.5-3.364 7.5-7.5C92.5 83.619 91.381 82.5 90 82.5z" fill="#ffffff" data-fill-palette-color="accent"></path><path d="M27.5 25v2c0 1.381 1.119 2.5 2.5 2.5s2.5-1.119 2.5-2.5v-2c0-1.381-1.119-2.5-2.5-2.5S27.5 23.619 27.5 25z" fill="#ffffff" data-fill-palette-color="accent"></path><path d="M48.23 25.23C47.77 25.7 47.5 26.34 47.5 27c0 0.66 0.27 1.3 0.73 1.77 0.47 0.46 1.11 0.73 1.77 0.73s1.3-0.27 1.77-0.73c0.46-0.47 0.73-1.11 0.73-1.77 0-0.66-0.271-1.3-0.73-1.77C50.83 24.3 49.16 24.3 48.23 25.23z" fill="#ffffff" data-fill-palette-color="accent"></path><path d="M58.229 25.23C57.77 25.7 57.5 26.34 57.5 27c0 0.66 0.27 1.31 0.729 1.77S59.34 29.5 60 29.5s1.3-0.27 1.77-0.73c0.46-0.47 0.73-1.11 0.73-1.77 0-0.66-0.271-1.3-0.73-1.77C60.84 24.3 59.16 24.3 58.229 25.23z" fill="#ffffff" data-fill-palette-color="accent"></path><path d="M68.229 25.23C67.77 25.69 67.5 26.34 67.5 27c0 0.66 0.27 1.31 0.729 1.77C68.7 29.23 69.34 29.5 70 29.5s1.3-0.27 1.77-0.73c0.46-0.47 0.73-1.11 0.73-1.77 0-0.66-0.271-1.3-0.73-1.77C70.84 24.3 69.16 24.31 68.229 25.23z" fill="#ffffff" data-fill-palette-color="accent"></path><path d="M31.77 45.83c0.46-0.47 0.73-1.11 0.73-1.77 0-0.66-0.27-1.3-0.73-1.77-0.93-0.93-2.61-0.93-3.54 0-0.46 0.47-0.73 1.11-0.73 1.77 0 0.66 0.27 1.3 0.73 1.77 0.47 0.46 1.11 0.73 1.77 0.73C30.66 46.56 31.3 46.29 31.77 45.83z" fill="#ffffff" data-fill-palette-color="accent"></path><path d="M41.77 46.89c0.46-0.46 0.73-1.11 0.73-1.76 0-0.66-0.27-1.31-0.73-1.77-0.93-0.93-2.61-0.93-3.54 0-0.46 0.46-0.73 1.11-0.73 1.77 0 0.65 0.27 1.3 0.73 1.76 0.47 0.47 1.11 0.74 1.77 0.74C40.66 47.63 41.3 47.36 41.77 46.89z" fill="#ffffff" data-fill-palette-color="accent"></path><path d="M51.77 47.27c0.46-0.47 0.73-1.11 0.73-1.77 0-0.66-0.271-1.3-0.73-1.77-0.93-0.93-2.61-0.93-3.54 0-0.46 0.47-0.73 1.11-0.73 1.77 0 0.66 0.27 1.3 0.73 1.77C48.7 47.73 49.34 48 50 48S51.3 47.73 51.77 47.27z" fill="#ffffff" data-fill-palette-color="accent"></path><path d="M61.77 46.89c0.46-0.46 0.73-1.11 0.73-1.76 0-0.66-0.271-1.31-0.73-1.77-0.939-0.93-2.609-0.93-3.54 0-0.46 0.46-0.729 1.11-0.729 1.77 0 0.65 0.27 1.3 0.729 1.76 0.471 0.47 1.11 0.74 1.771 0.74S61.3 47.36 61.77 46.89z" fill="#ffffff" data-fill-palette-color="accent"></path><path d="M71.77 45.83c0.46-0.47 0.73-1.11 0.73-1.77 0-0.66-0.271-1.3-0.73-1.77-0.93-0.93-2.609-0.92-3.54 0-0.46 0.46-0.729 1.11-0.729 1.77 0 0.66 0.27 1.31 0.729 1.77 0.471 0.46 1.11 0.73 1.771 0.73S71.3 46.29 71.77 45.83z" fill="#ffffff" data-fill-palette-color="accent"></path></g></svg></g></svg></g></svg></g></svg></g><g></g></svg></g><defs></defs></svg><rect width="360.2592830976883" height="247.2" fill="none" stroke="none" visibility="hidden"></rect></g></svg></g></svg>